# xmcd
#
# Track frame offsets:
#	150
#	11627
#	25785
#	38592
#	48735
#	59505
#	69707
#	82632
#	96437
#	109042
#	117000
#
# Disc length: 1788 seconds
#
# Revision: 0
# Processed by: cddbd v1.5.1PL2 Copyright (c) Steve Scherf et al.
# Submitted via: dBpowerAMP V4.0
#
DISCID=8706fa0b
DTITLE=Freddy Fender - Greatest Hits
DYEAR=2002
DGENRE=Country
TTITLE0=Before The Next Teardrop Falls
TTITLE1=Wild Side Of Life
TTITLE2=You'll Lose A Good Thing
TTITLE3=The Rains Came
TTITLE4=She's About A Mover
TTITLE5=Crazy Baby
TTITLE6=Silver Wings
TTITLE7=Baby I Want To Love
TTITLE8=Almost Persuaded
TTITLE9=I'm Leaving It Up To You
TTITLE10=Wasted Days And Wasted Nights
EXTD=
EXTT0=
EXTT1=
EXTT2=
EXTT3=
EXTT4=
EXTT5=
EXTT6=
EXTT7=
EXTT8=
EXTT9=
EXTT10=
PLAYORDER=
